<svg width="30" height="30" viewBox="0 0 30 30" fill="none" xmlns="http://www.w3.org/2000/svg">
<path d="M26.4248 16.4318L23.0764 15.7621L23.1877 15.3538C23.3041 14.9279 23.4068 14.4938 23.4954 14.0586C23.6088 14.0445 23.7132 13.9896 23.7889 13.904C23.8646 13.8184 23.9064 13.708 23.9065 13.5938C23.9065 13.2459 23.851 12.9002 23.742 12.5698C23.7869 12.2182 23.823 11.8641 23.8489 11.5151C23.8499 11.5054 23.8508 11.4956 23.8513 11.4858C23.8571 11.4075 23.8616 11.3286 23.8665 11.2498H23.9065C24.4038 11.2498 24.8807 11.0523 25.2323 10.7007C25.584 10.349 25.7815 9.87212 25.7815 9.37484C25.7815 8.87756 25.584 8.40065 25.2323 8.04902C24.8807 7.69739 24.4038 7.49984 23.9065 7.49984C23.9065 7.49984 23.9045 5.02209 23.9028 4.99473C23.9028 4.99314 23.9028 4.99162 23.9028 4.9901C23.8955 4.79664 23.8687 4.60442 23.8228 4.41635L23.8196 4.40351H23.8186C23.6482 3.68437 23.2403 3.04366 22.6609 2.58487C22.0815 2.12608 21.3643 1.876 20.6253 1.87502H19.4269C18.7725 1.87564 18.1326 1.6819 17.5884 1.31838C17.2469 1.09065 16.85 0.959884 16.44 0.940032C16.03 0.92018 15.6223 1.01199 15.2604 1.20566C14.8985 1.39933 14.596 1.6876 14.3851 2.03973C14.1741 2.39185 14.0627 2.79463 14.0628 3.2051V3.35744C14.0625 3.90361 14.2603 4.43135 14.6194 4.84285C14.56 5.09931 14.5305 5.36178 14.5315 5.62502V7.50002C14.0502 7.4998 13.5874 7.6854 13.2396 8.0181C13.5823 5.7518 13.3863 3.43664 12.6675 1.26019C12.637 1.16734 12.5783 1.08634 12.4995 1.02851C12.4207 0.970686 12.3258 0.938933 12.2281 0.937694C12.1304 0.936454 12.0347 0.965789 11.9545 1.0216C11.8743 1.0774 11.8135 1.15689 11.7807 1.24894L8.90651 9.31056L6.0322 1.24883C5.99972 1.15774 5.93986 1.07893 5.86083 1.02319C5.78179 0.967459 5.68746 0.937534 5.59075 0.937518H5.58489C5.48715 0.938759 5.39224 0.970525 5.31344 1.02837C5.23465 1.08622 5.17591 1.16725 5.14544 1.26014C4.18499 4.18305 4.16806 7.33399 5.09704 10.267L6.728 15.4212L4.51099 21.6393C3.68336 21.6865 2.89317 22 2.25835 22.5331C1.53184 23.1388 1.06703 24.0014 0.960734 24.9413C0.90568 25.4258 0.948707 25.9165 1.08725 26.384C1.2258 26.8515 1.45702 27.2864 1.76716 27.6627C2.0893 28.0577 2.48766 28.3839 2.93849 28.6217C3.38933 28.8596 3.88342 29.0042 4.39134 29.0471C4.50232 29.0572 4.61341 29.0622 4.72462 29.0622C5.64155 29.0583 6.52759 28.7304 7.2261 28.1364C8.00107 27.4781 8.46648 26.5791 8.53667 25.6051C8.57599 25.0163 8.47341 24.4265 8.23752 23.8855C8.00164 23.3445 7.63935 22.868 7.1811 22.4961L8.20708 20.0006C8.37669 19.5898 8.61328 19.21 8.90722 18.8767C9.08835 19.083 9.24803 19.3071 9.38382 19.5457C9.38112 19.8963 9.37526 27.1875 9.37526 27.1875C9.37582 27.6846 9.57355 28.1612 9.92506 28.5127C10.2766 28.8642 10.7532 29.062 11.2503 29.0625H14.0628C14.1157 29.0625 14.1683 29.0535 14.2182 29.036L19.2196 27.2775L24.2198 29.036C24.2697 29.0536 24.3223 29.0625 24.3753 29.0625H27.1878C27.685 29.0625 28.162 28.865 28.5136 28.5133C28.8652 28.1617 29.0628 27.6848 29.0628 27.1875V19.6494C29.061 18.8913 28.7976 18.157 28.3169 17.5707C27.8363 16.9844 27.1679 16.5821 26.4248 16.4318ZM23.9065 8.43752C24.1552 8.43752 24.3936 8.53629 24.5694 8.71211C24.7452 8.88792 24.844 9.12638 24.844 9.37502C24.844 9.62366 24.7452 9.86211 24.5694 10.0379C24.3936 10.2137 24.1552 10.3125 23.9065 10.3125V8.43752ZM22.0315 13.125C21.5138 13.1264 21.0106 12.9541 20.6024 12.6356C20.2511 12.3521 19.815 12.1944 19.3636 12.1875H19.0745C18.6231 12.1943 18.187 12.3521 17.8357 12.6356C17.4275 12.9541 16.9242 13.1264 16.4065 13.125H15.5159C15.6247 12.596 15.9125 12.1206 16.3309 11.7791C16.7493 11.4375 17.2727 11.2507 17.8128 11.25H20.6253C21.1654 11.2507 21.6887 11.4375 22.1071 11.7791C22.5255 12.1206 22.8134 12.596 22.9221 13.125H22.0315ZM22.5365 14.0625C22.4614 14.4134 21.956 16.3074 21.956 16.3074C21.8744 16.6048 21.6975 16.8671 21.4525 17.0543C21.2075 17.2415 20.9078 17.3432 20.5995 17.3438H17.8385C17.5302 17.3432 17.2306 17.2415 16.9856 17.0544C16.7406 16.8672 16.5637 16.6049 16.482 16.3076C16.482 16.3076 15.9766 14.4134 15.9016 14.0625H16.4065C17.1323 14.0646 17.8377 13.823 18.4099 13.3766C18.5979 13.2223 18.8314 13.1339 19.0745 13.125H19.3636C19.6067 13.1339 19.8401 13.2223 20.0281 13.3766C20.6003 13.823 21.3058 14.0646 22.0315 14.0625H22.5365ZM18.7743 7.82053L17.9437 10.3125H17.8128C17.354 10.3122 16.9003 10.4088 16.4814 10.5959C16.3827 10.5332 16.3013 10.4469 16.2444 10.3448L15.5229 8.06627C16.1163 7.31585 16.6162 6.49609 17.0118 5.62502H21.4262C21.8228 6.49866 22.3246 7.32063 22.9203 8.07271L22.2351 10.4643C22.1863 10.5336 22.1253 10.5934 22.055 10.6406C21.6095 10.4241 21.1206 10.3119 20.6253 10.3125H18.9319L19.6637 8.11701L18.7743 7.82053ZM15.469 6.52297V5.62502C15.469 5.56783 15.4711 5.51187 15.4744 5.45668C15.639 5.52425 15.811 5.57203 15.9868 5.599C15.8274 5.91787 15.6548 6.22586 15.469 6.52297ZM15.6583 11.122C15.6079 11.1661 15.5587 11.2112 15.511 11.2582C15.5032 11.141 15.4963 11.0244 15.491 10.9092C15.5408 10.9847 15.5968 11.0558 15.6583 11.122ZM22.8515 11.1861C22.8814 11.1546 22.9104 11.1222 22.9378 11.0883C22.9346 11.145 22.9305 11.2013 22.9268 11.2579C22.902 11.2335 22.8769 11.2096 22.8515 11.1861ZM22.4645 5.62502H22.969V6.52297C22.7884 6.23433 22.6202 5.93502 22.4645 5.62502ZM15.0003 3.2051C15.0002 2.96426 15.0655 2.72791 15.1892 2.52128C15.3129 2.31466 15.4904 2.1455 15.7028 2.03186C15.9151 1.91822 16.1543 1.86437 16.3949 1.87606C16.6354 1.88774 16.8683 1.96452 17.0686 2.0982C17.7666 2.56461 18.5874 2.81322 19.4269 2.81252H20.6253C21.1654 2.81319 21.6887 3.00005 22.1071 3.34159C22.5255 3.68314 22.8134 4.15849 22.9221 4.68752H16.3303C15.9777 4.68705 15.6397 4.54677 15.3903 4.29743C15.141 4.0481 15.0007 3.71006 15.0003 3.35744V3.2051ZM14.5315 8.43752V9.98791C14.5315 10.0966 14.5327 10.2047 14.5344 10.3124H14.5315C14.2829 10.3124 14.0444 10.2136 13.8686 10.0378C13.6928 9.862 13.594 9.62354 13.594 9.3749C13.594 9.12626 13.6928 8.8878 13.8686 8.71199C14.0444 8.53617 14.2829 8.4374 14.5315 8.4374V8.43752ZM12.716 10.2673C12.7389 10.1949 12.7608 10.1222 12.7825 10.0495C12.9191 10.4026 13.1592 10.7062 13.4713 10.9204C13.7834 11.1347 14.153 11.2495 14.5315 11.25H14.5713C14.5762 11.3286 14.6512 12.2182 14.696 12.5698C14.587 12.9002 14.5315 13.2459 14.5315 13.5938C14.5316 13.708 14.5734 13.8183 14.6491 13.9039C14.7247 13.9895 14.8291 14.0445 14.9424 14.0586C15.031 14.4938 15.3616 15.7622 15.3616 15.7622C15.2972 15.775 12.5257 16.3295 12.0123 16.4325C11.8371 16.4677 11.665 16.517 11.4978 16.5801L11.085 15.4223L12.716 10.2673ZM5.99077 9.98439C5.27236 7.71658 5.15566 5.30098 5.6521 2.97447L8.40876 10.7067L7.2486 13.9603L5.99077 9.98439ZM7.34001 19.6445L6.17499 22.4781C6.13367 22.5787 6.12861 22.6905 6.16068 22.7944C6.19275 22.8984 6.25995 22.9879 6.35077 23.0477C6.7615 23.3144 7.09385 23.6857 7.3137 24.1233C7.53356 24.5609 7.63299 25.0492 7.60181 25.5379C7.57253 25.9018 7.47049 26.256 7.30174 26.5797C7.13299 26.9034 6.90096 27.1899 6.61942 27.4222C6.32554 27.6732 5.98484 27.8636 5.61701 27.9822C5.24917 28.1009 4.86148 28.1455 4.4763 28.1136C4.09273 28.0816 3.71952 27.9728 3.3789 27.7936C3.03828 27.6143 2.73722 27.3684 2.49366 27.0703C2.26275 26.7905 2.09051 26.4671 1.9872 26.1193C1.8839 25.7715 1.85165 25.4065 1.89237 25.046C2.05321 23.6132 3.34374 22.5265 4.82903 22.5718C4.9281 22.5746 5.02552 22.546 5.10738 22.4901C5.18924 22.4343 5.25134 22.3539 5.28484 22.2607L12.1614 2.97254C12.6615 5.29943 12.5445 7.71663 11.8222 9.98439L9.54741 17.1743C8.55313 17.7239 7.77487 18.5947 7.34001 19.6443V19.6445ZM10.2672 19.2062C10.0839 18.8621 9.86078 18.5406 9.60255 18.2485C9.77565 18.1241 9.95802 18.0133 10.1481 17.9168C10.2037 17.8887 10.2533 17.8497 10.2937 17.8021C10.3341 17.7546 10.3646 17.6994 10.3834 17.6399L10.617 16.9016L12.1409 21.1758L11.1716 21.3429L10.4731 19.644C10.4138 19.4997 10.347 19.3573 10.2744 19.2203C10.2722 19.2154 10.2698 19.2107 10.2672 19.206V19.2062ZM10.315 22.4282L12.5832 22.0501L15.2594 23.3882C15.3144 23.4157 15.3743 23.4321 15.4356 23.4365L19.6283 23.736C19.4276 23.955 19.2676 24.2082 19.156 24.4836L18.3734 24.3271L18.1896 25.2464L18.9722 25.4029C18.9694 25.6897 19.0163 25.9748 19.1107 26.2456L15.6245 25.0196C15.6021 25.0117 15.5791 25.0055 15.5557 25.0011L12.2745 24.3832C12.1869 24.3667 12.0964 24.3755 12.0137 24.4086L10.3128 25.0889C10.3133 24.2637 10.3141 23.3123 10.315 22.428V22.4282ZM13.9762 25.6577C13.9129 25.8234 13.8045 25.968 13.6633 26.0751C13.522 26.1823 13.3535 26.2477 13.1769 26.264C12.6484 26.3201 12.1731 25.9534 12.1164 25.4448C12.1139 25.423 12.1126 25.4012 12.1117 25.3793L12.2354 25.3299L13.9762 25.6577ZM13.3384 28.1133C13.2505 28.121 13.1645 28.125 13.0825 28.125C11.8222 28.125 10.6701 27.2762 10.3155 26.0977L11.2158 25.7376C11.3119 26.1567 11.5479 26.5305 11.8848 26.7976C12.2217 27.0647 12.6395 27.2092 13.0695 27.2072C13.1385 27.2072 13.2075 27.2035 13.2761 27.1962C13.6536 27.1601 14.0112 27.0105 14.302 26.7671C14.5928 26.5237 14.803 26.1979 14.905 25.8327L15.3471 25.9159L15.8348 26.0874C15.5239 27.1915 14.5445 28.0039 13.3384 28.1133ZM16.3074 27.3076C16.4859 27.0249 16.6248 26.719 16.7203 26.3986L17.8066 26.7806L16.3074 27.3076ZM28.1253 27.1875C28.125 27.4361 28.0261 27.6744 27.8504 27.8501C27.6746 28.0259 27.4363 28.1247 27.1878 28.125H24.4553L21.1689 26.9693L21.17 26.9634C21.1538 26.9602 21.1379 26.9563 21.122 26.9525L20.7938 26.8372C20.5544 26.7206 20.3485 26.5452 20.1953 26.3274C20.042 26.1095 19.9466 25.8564 19.9178 25.5917L21.7248 25.9531L21.5771 26.6919L22.4964 26.8758L22.6442 26.1369L23.4102 26.2902C23.4626 26.5846 23.6161 26.8515 23.8444 27.0448C24.0726 27.238 24.3611 27.3455 24.6602 27.3488C24.9592 27.352 25.25 27.2506 25.4823 27.0623C25.7146 26.874 25.8738 26.6104 25.9326 26.3172C25.9913 26.0239 25.9457 25.7194 25.8038 25.4561C25.6619 25.1929 25.4326 24.9875 25.1553 24.8753C24.8781 24.7631 24.5704 24.7513 24.2854 24.8418C24.0003 24.9323 23.7559 25.1195 23.5942 25.3711L22.8284 25.2178L22.9762 24.479L22.0569 24.2952L21.9091 25.034L20.1017 24.6725C20.2287 24.4411 20.4119 24.2454 20.6345 24.1035C20.8571 23.9616 21.1119 23.878 21.3753 23.8606L28.1253 24.3427V27.1875ZM24.3342 25.9971C24.3477 25.93 24.3807 25.8684 24.4291 25.82C24.4776 25.7716 24.5393 25.7387 24.6064 25.7254C24.6736 25.7121 24.7432 25.7191 24.8064 25.7453C24.8696 25.7716 24.9236 25.816 24.9616 25.873C24.9996 25.9299 25.0198 25.9969 25.0198 26.0653C25.0197 26.1338 24.9993 26.2007 24.9612 26.2575C24.9231 26.3144 24.869 26.3587 24.8058 26.3849C24.7425 26.411 24.6729 26.4178 24.6058 26.4044C24.5158 26.3862 24.4367 26.3332 24.3858 26.2569C24.3349 26.1805 24.3164 26.0871 24.3342 25.9971ZM28.1253 23.4028L23.771 23.0918L25.8549 22.0499L28.1253 22.4284V23.4028ZM28.1253 21.4779L25.8584 21.1001C25.7607 21.0839 25.6604 21.099 25.5719 21.1433L24.3753 21.7416V20.1563H23.4378V22.2103L22.8505 22.5039L17.979 22.6781L15.5953 22.5079L14.5315 21.976V20.1563H13.594V21.5072L13.1808 21.3005L11.8128 17.4632C11.9374 17.4153 12.0659 17.3781 12.1968 17.3519C12.7101 17.249 15.5266 16.6856 15.6123 16.6685C15.767 17.1372 16.0653 17.5452 16.465 17.8347C16.8646 18.1243 17.3453 18.2806 17.8388 18.2816H20.5998C21.0933 18.2806 21.574 18.1242 21.9737 17.8347C22.3733 17.5451 22.6717 17.137 22.8263 16.6684L26.2414 17.3514C26.772 17.4588 27.2493 17.7462 27.5926 18.1649C27.9358 18.5836 28.124 19.108 28.1253 19.6494V21.4779Z" fill="black"/>
<path d="M4.94673 23.4967C3.90804 23.3861 2.96948 24.1246 2.85493 25.1432C2.82758 25.3839 2.84842 25.6275 2.91625 25.8601C2.98407 26.0926 3.09752 26.3093 3.24997 26.4975C3.4073 26.6936 3.60211 26.8564 3.82303 26.9764C4.04394 27.0964 4.28655 27.1713 4.53669 27.1966C4.60512 27.2039 4.67389 27.2075 4.7427 27.2075C5.69696 27.2075 6.52161 26.5008 6.62831 25.5503C6.65566 25.3097 6.63481 25.066 6.56698 24.8335C6.49916 24.601 6.38572 24.3843 6.23327 24.1961C6.07598 24 5.88121 23.8371 5.66033 23.717C5.43944 23.597 5.19686 23.5221 4.94673 23.4967ZM5.69673 25.4454C5.63972 25.953 5.16352 26.3202 4.63618 26.264C4.50898 26.2515 4.38555 26.2137 4.27309 26.153C4.16063 26.0922 4.06139 26.0097 3.98116 25.9102C3.90639 25.8181 3.8507 25.7121 3.81732 25.5984C3.78394 25.4846 3.77355 25.3653 3.78675 25.2474C3.84376 24.7399 4.31907 24.3727 4.84729 24.4288C4.97446 24.4414 5.09785 24.4792 5.21028 24.5399C5.3227 24.6006 5.42192 24.6831 5.50214 24.7826C5.57698 24.8746 5.63275 24.9806 5.66618 25.0944C5.69961 25.2082 5.71003 25.3275 5.69684 25.4454H5.69673Z" fill="black"/>
<path d="M9.375 15H8.4375V15.9375H9.375V15Z" fill="black"/>
<path d="M17.1094 9.375C17.4977 9.375 17.8125 9.0602 17.8125 8.67188C17.8125 8.28355 17.4977 7.96875 17.1094 7.96875C16.721 7.96875 16.4062 8.28355 16.4062 8.67188C16.4062 9.0602 16.721 9.375 17.1094 9.375Z" fill="black"/>
<path d="M21.3281 9.375C21.7165 9.375 22.0312 9.0602 22.0312 8.67188C22.0312 8.28355 21.7165 7.96875 21.3281 7.96875C20.9398 7.96875 20.625 8.28355 20.625 8.67188C20.625 9.0602 20.9398 9.375 21.3281 9.375Z" fill="black"/>
</svg>
