<svg width="27" height="30" viewBox="0 0 27 30" fill="none" xmlns="http://www.w3.org/2000/svg">
<path d="M0.23806 27.4347C2.67906 28.9622 6.93056 29.6242 9.81206 29.8552C14.5311 30.2342 22.7366 29.9142 26.6981 27.4347C26.8515 27.3388 26.9412 27.1674 26.9325 26.9866C26.9238 26.8059 26.818 26.6439 26.6561 26.5632C26.2111 26.3417 24.9241 25.6347 24.3101 25.2837C20.9601 23.3307 21.6601 25.2582 17.9681 21.7837V18.8767C18.9246 17.9707 19.4766 17.1842 19.5381 15.7962C20.5762 15.2711 21.2755 14.2536 21.3936 13.0962C21.4986 12.5652 21.7266 11.0647 21.1471 10.3502C21.9651 9.4952 21.9681 8.0812 21.9681 6.5007C21.9584 5.21706 21.1531 4.0742 19.9476 3.6332C19.8181 2.4427 18.9401 0.000704021 13.9681 0.000704021C11.1033 -0.0123566 8.24051 0.156315 5.39706 0.505704C5.16379 0.53854 4.98508 0.729748 4.96806 0.964704C4.8687 2.32656 4.8687 3.69385 4.96806 5.0557C5.25956 7.6792 5.88406 9.1767 6.39906 10.0027C5.24606 10.1707 5.31606 11.9527 5.53956 13.0967C5.6597 14.2533 6.35838 15.27 7.39506 15.7967C7.45606 17.1777 8.00056 17.9637 8.96506 18.8777V21.7857C8.2544 22.4809 7.48318 23.1114 6.66056 23.6697C6.24605 23.9156 5.79432 24.0924 5.32306 24.1932C3.87306 24.4497 3.07306 25.0702 0.50956 26.4432C0.29556 26.5572 0.0170596 26.6432 0.000559601 26.9852C-0.00803784 27.1671 0.0829431 27.3393 0.23806 27.4347ZM23.8101 26.1507C24.3256 26.4452 24.8486 26.7327 25.3746 27.0172C23.3904 27.8509 21.2966 28.3949 19.1576 28.6327C20.0325 27.6003 20.6104 26.3496 20.8296 25.0142C21.6946 25.3077 22.0931 25.1507 23.8101 26.1507ZM20.4101 12.9282C20.406 12.9499 20.4031 12.9717 20.4016 12.9937C20.3279 13.6342 20.0118 14.2221 19.5181 14.6367C19.4416 13.0127 19.7336 12.8307 19.8931 11.1042C20.0444 11.0173 20.2197 10.9812 20.3931 11.0012C20.5436 11.1967 20.5806 12.0672 20.4076 12.9272L20.4101 12.9282ZM5.94256 1.4442C8.60699 1.14242 11.2866 0.994339 13.9681 1.0007C18.4806 1.0007 18.9681 3.1007 18.9681 4.0007C18.9691 4.22891 19.1237 4.42781 19.3446 4.4852C19.4106 4.5007 20.9681 4.9257 20.9681 6.5007C20.9681 8.4587 20.9106 9.5352 19.9596 9.9557C19.9626 9.85271 19.9726 9.3677 19.9661 9.2947C19.6376 5.7457 18.4481 5.0007 17.5086 5.0007C15.4366 5.0007 15.3856 5.5007 13.4681 5.5007C11.5591 5.5007 11.4881 5.0007 9.42756 5.0007C8.12756 5.0007 7.29356 6.3747 7.00406 9.0137C6.426 7.72767 6.07449 6.35143 5.96506 4.9457C5.8755 3.78051 5.86798 2.61046 5.94256 1.4442ZM6.53706 12.9912C6.53549 12.9699 6.53265 12.9487 6.52856 12.9277C6.34706 12.0197 6.40006 11.0937 6.55306 10.9902C6.72076 10.9832 6.8877 11.0163 7.04006 11.0867C7.19006 12.7572 7.49506 13.0007 7.41806 14.6367C6.92448 14.2213 6.60913 13.6323 6.53706 12.9912ZM8.41306 14.8007C8.52506 12.4732 7.97706 12.4507 7.96806 9.37521C8.11806 7.74071 8.57706 6.0007 9.42756 6.0007C11.3371 6.0007 11.4076 6.5007 13.4681 6.5007C15.5396 6.5007 15.5906 6.0007 17.5086 6.0007C18.2181 6.0007 18.7771 7.3007 18.9681 9.3597C18.9626 12.4317 18.4096 12.4412 18.5231 14.8027C18.6646 17.7642 17.7626 17.1082 15.9186 19.8132C15.3426 20.6577 15.0786 21.0007 14.3181 21.0007H12.6181C11.2531 21.0007 11.2841 19.6232 9.54906 18.0452C8.40356 17.0082 8.34756 16.1792 8.41306 14.8007ZM8.96806 23.1392V24.0007C8.96806 24.2768 9.19192 24.5007 9.46806 24.5007C9.7442 24.5007 9.96806 24.2768 9.96806 24.0007V20.0537C10.7051 21.1007 11.1746 22.0007 12.6181 22.0007C15.3741 22.0007 15.4456 22.2212 16.9681 20.0537V24.0007C16.9681 24.2768 17.1919 24.5007 17.4681 24.5007C17.7442 24.5007 17.9681 24.2768 17.9681 24.0007V23.1392C18.5548 23.6915 19.1986 24.1799 19.8886 24.5962C19.7051 25.7377 19.0781 28.1842 17.0341 28.8597C14.6623 29.0475 12.2794 29.0475 9.90756 28.8597C7.85756 28.1862 7.23106 25.7382 7.04756 24.5957C7.73737 24.1794 8.38113 23.6912 8.96806 23.1392ZM3.12956 26.1477C4.83756 25.1527 5.24606 25.3062 6.10656 25.0132C6.32558 26.3486 6.90352 27.5994 7.77856 28.6317C5.63951 28.3939 3.54576 27.8499 1.56156 27.0162C2.08756 26.7317 2.61156 26.4437 3.12956 26.1477Z" fill="black"/>
</svg>
