<svg width="28" height="33" viewBox="0 0 28 33" fill="none" xmlns="http://www.w3.org/2000/svg">
<path d="M19.1076 32.523H4.17069C3.6129 32.523 3.15115 32.1167 3.04785 31.5347C2.94448 30.9529 3.23518 30.3959 3.75471 30.1803L5.53619 29.441H3.4667C3.22399 29.441 3.02722 29.2322 3.02722 28.9745C3.02722 28.7168 3.22399 28.508 3.4667 28.508H7.78463L9.44123 27.8205V22.6985C9.44123 22.4408 9.638 22.232 9.88071 22.232H10.3202V17.5929H6.29778C5.39842 17.5929 4.51735 17.263 3.81694 16.6642C3.11646 16.0654 2.62513 15.2219 2.43339 14.2892L0.0300223 2.59686C-0.122155 1.85639 0.319201 1.11163 1.01387 0.93671L1.60014 0.789101C3.08353 0.415632 4.65635 0.992071 5.60738 2.25772C5.75874 2.45914 5.72762 2.75268 5.53783 2.91335C5.34803 3.07389 5.07151 3.04086 4.92021 2.83951C4.18042 1.85483 2.95679 1.4061 1.803 1.69696L1.21674 1.84457C0.98516 1.90292 0.838022 2.15111 0.888767 2.39793L2.47758 10.1275H6.84859L5.50636 4.12072C5.45034 3.87004 5.59637 3.61855 5.83251 3.55908C6.06872 3.49974 6.30557 3.65469 6.36153 3.90531L7.75193 10.1275H14.5372C14.7799 10.1275 14.9766 10.3363 14.9766 10.594C14.9766 10.8517 14.7799 11.0606 14.5372 11.0606H2.66943L3.24479 13.8597H19.3402C19.1263 12.2793 17.8422 11.0606 16.2951 11.0606C16.0524 11.0606 15.8556 10.8517 15.8556 10.594C15.8556 10.3363 16.0524 10.1275 16.2951 10.1275C18.4761 10.1275 20.2504 12.011 20.2504 14.3262V16.1933C20.2504 16.6487 20.0444 17.054 19.7263 17.3097L27.4194 25.4762C27.6684 25.7406 27.8055 26.092 27.8055 26.4659C27.8055 26.8397 27.6684 27.1911 27.4194 27.4555C27.1703 27.7198 26.8393 27.8654 26.4871 27.8654C26.1349 27.8654 25.8039 27.7198 25.5548 27.4555C25.5 27.3973 17.2206 18.602 16.2702 17.5928H12.9571V22.2319H13.3966C13.6393 22.2319 13.8361 22.4407 13.8361 22.6984V27.8205L16.3625 28.8688C16.5886 28.9626 16.7002 29.2332 16.6119 29.4732C16.5235 29.7132 16.2687 29.8317 16.0425 29.7379L13.3138 28.6055H9.96363L4.07465 31.0493C3.89089 31.1256 3.89933 31.2933 3.91151 31.3619C3.9237 31.4305 3.97334 31.5899 4.17063 31.5899H19.1076C19.3048 31.5899 19.3543 31.4305 19.3665 31.362C19.3787 31.2935 19.3872 31.1259 19.2035 31.0497L17.6459 30.4033C17.4198 30.3095 17.3082 30.0389 17.3965 29.7989C17.4849 29.559 17.7398 29.4404 17.9659 29.5342L19.5236 30.1806C20.043 30.3962 20.3337 30.9531 20.2303 31.5349C20.1269 32.1167 19.6653 32.523 19.1076 32.523ZM10.3202 27.6725H12.9571V23.165H10.3202V27.6725ZM17.5129 17.5929C18.99 19.1617 26.1215 26.7376 26.1763 26.7957C26.2593 26.8839 26.3697 26.9324 26.4871 26.9324C26.6045 26.9324 26.7149 26.8839 26.7978 26.7958C26.8809 26.7076 26.9266 26.5904 26.9266 26.4659C26.9266 26.3413 26.8809 26.2241 26.7978 26.136C26.7978 26.136 19.682 18.5822 18.7499 17.5928H17.5129V17.5929ZM11.1992 22.232H12.0781V17.5929H11.1992V22.232ZM3.5192 14.7928C4.02121 15.9072 5.09981 16.6599 6.29778 16.6599H18.932C19.1743 16.6599 19.3714 16.4506 19.3714 16.1933V14.7928H3.5192Z" fill="black"/>
</svg>
