<svg width="30" height="30" viewBox="0 0 30 30" fill="none" xmlns="http://www.w3.org/2000/svg">
<path fill-rule="evenodd" clip-rule="evenodd" d="M28.9703 12.6656C28.8325 12.5544 28.6519 12.5114 28.4791 12.5484L19.5367 14.4617L18.5337 14.2472L21.18 8.94653C21.1844 8.93784 21.1885 8.92914 21.1924 8.92044C21.5476 8.1118 21.7278 7.25143 21.7278 6.36292C21.7278 2.85439 18.8736 0 15.3651 0C11.8565 0 9.00215 2.85439 9.00215 6.36292C9.00215 7.25143 9.18228 8.1118 9.53773 8.92044C9.54163 8.92914 9.54552 8.93784 9.54987 8.94653L11.4386 12.729L10.594 12.5484C10.5862 12.5466 10.5782 12.5459 10.5702 12.5448C10.5588 12.5427 10.5476 12.5407 10.5361 12.5393C10.5256 12.5381 10.5153 12.5379 10.505 12.5372C10.4935 12.5365 10.4823 12.5356 10.4711 12.5356C10.4604 12.5356 10.4498 12.5365 10.4391 12.537C10.4281 12.5377 10.4171 12.5381 10.4063 12.5393C10.3951 12.5407 10.3841 12.5427 10.3732 12.5446C10.3649 12.5459 10.3569 12.5466 10.3487 12.5482L1.28357 14.488C1.01349 14.5457 0.820312 14.7846 0.820312 15.0609V19.8937C0.820312 20.2174 1.08261 20.4797 1.40625 20.4797C1.72989 20.4797 1.99219 20.2174 1.99219 19.8937V15.5347L9.88541 13.846V27.0007L1.99219 28.6894V24.5812C1.99219 24.2576 1.72989 23.9953 1.40625 23.9953C1.08261 23.9953 0.820312 24.2576 0.820312 24.5812V29.4141C0.820312 29.591 0.900192 29.7585 1.03775 29.8695C1.14304 29.9547 1.27327 30 1.40625 30C1.44699 30 1.48819 29.9957 1.52893 29.987L10.4713 28.0737L19.414 29.987C19.4172 29.9876 19.4204 29.9881 19.4236 29.9886C19.4366 29.9911 19.4497 29.9931 19.4627 29.9947C19.4687 29.9954 19.4744 29.9963 19.4804 29.997C19.4989 29.9989 19.5177 30 19.5367 30C19.5554 30 19.5742 29.9989 19.5927 29.997C19.5987 29.9963 19.6046 29.9954 19.6104 29.9947C19.6234 29.9931 19.6365 29.9911 19.6493 29.9886C19.6525 29.9879 19.6559 29.9876 19.6591 29.987L28.7242 28.0474C28.9945 27.9895 29.1877 27.7508 29.1877 27.4745V22.6417C29.1877 22.318 28.9254 22.0557 28.6018 22.0557C28.2781 22.0557 28.0158 22.318 28.0158 22.6417V27.0005L20.1226 28.6894V15.5347L28.0158 13.846V17.9542C28.0158 18.2778 28.2781 18.5401 28.6018 18.5401C28.9254 18.5401 29.1877 18.2778 29.1877 17.9542V13.1213C29.1877 12.9444 29.1078 12.7771 28.9703 12.6656ZM10.174 6.36292C10.174 3.50052 12.5027 1.17188 15.3651 1.17188C18.2275 1.17188 20.5561 3.50052 20.5561 6.36292C20.5561 7.08344 20.411 7.78084 20.1251 8.43613L15.3651 17.9702L10.605 8.43613C10.3189 7.78084 10.174 7.08344 10.174 6.36292ZM11.0573 13.846L12.1083 14.0707L14.8409 19.5435C14.94 19.7422 15.1431 19.8679 15.3651 19.8679C15.5871 19.8679 15.7901 19.7422 15.8894 19.5435L17.9931 15.3298L18.9507 15.5347V28.6894L11.0575 27.0005V13.846H11.0573Z" fill="black"/>
<path fill-rule="evenodd" clip-rule="evenodd" d="M19.1326 6.36292C19.1326 4.28535 17.4426 2.59506 15.365 2.59506C13.2875 2.59506 11.5972 4.28535 11.5972 6.36292C11.5972 8.44048 13.2875 10.1305 15.365 10.1305C17.4426 10.1305 19.1326 8.44048 19.1326 6.36292ZM12.769 6.36292C12.769 4.93149 13.9336 3.76694 15.365 3.76694C16.7964 3.76694 17.961 4.93149 17.961 6.36292C17.961 7.79411 16.7964 8.95866 15.365 8.95866C13.9336 8.95866 12.769 7.79411 12.769 6.36292Z" fill="black"/>
<path fill-rule="evenodd" clip-rule="evenodd" d="M1.40625 22.8234C1.72897 22.8234 1.99219 22.5602 1.99219 22.2375C1.99219 21.9148 1.72897 21.6516 1.40625 21.6516C1.08353 21.6516 0.820312 21.9148 0.820312 22.2375C0.820312 22.5602 1.08353 22.8234 1.40625 22.8234Z" fill="black"/>
<path fill-rule="evenodd" clip-rule="evenodd" d="M28.6016 19.712C28.2788 19.712 28.0156 19.9752 28.0156 20.2979C28.0156 20.6206 28.2788 20.8839 28.6016 20.8839C28.9243 20.8839 29.1875 20.6206 29.1875 20.2979C29.1875 19.9752 28.9243 19.712 28.6016 19.712Z" fill="black"/>
</svg>
